<?xml version="1.0" encoding="utf-8"?>
<!-- Generator: Adobe Illustrator 24.0.1, SVG Export Plug-In . SVG Version: 6.00 Build 0)  -->
<svg version="1.1" xmlns="http://www.w3.org/2000/svg" xmlns:xlink="http://www.w3.org/1999/xlink" x="0px" y="0px"
	 viewBox="0 0 2850 1900" style="enable-background:new 0 0 2850 1900;" xml:space="preserve">
<style type="text/css">
	.st0{fill:#424242;}
	.st1{fill:url(#SVGID_1_);}
	.st2{fill:url(#SVGID_2_);}
	.st3{fill:url(#SVGID_3_);}
	.st4{fill:url(#SVGID_4_);}
	.st5{fill:#FFFFFF;}
	.st6{fill:url(#SVGID_5_);}
	.st7{fill:url(#SVGID_6_);}
	.st8{fill:url(#SVGID_7_);}
	.st9{fill:url(#SVGID_8_);}
	.st10{fill:url(#SVGID_9_);}
	.st11{fill:url(#SVGID_10_);}
	.st12{fill:url(#SVGID_11_);}
</style>
<g id="BG">
</g>
<g id="graphics">
	<g>
		<g>
			<g>
				<path d="M420.79,1608.66c1.17-16.48,5.29-33.45,12.34-50.91c7.06-17.46,16.47-33.35,28.24-47.68
					c11.77-14.32,25.49-26.2,41.19-35.62c15.69-9.42,32.56-14.13,50.61-14.14c7.84,0,15.69,0.88,23.54,2.64
					c7.84,1.76,15.1,4.8,21.78,9.11c11.38,7.06,19.43,16.97,24.14,29.72c4.71,12.75,4.51,25.41-0.58,37.96
					c-5.1,12.95-14.03,22.86-26.77,29.73c-12.75,6.87-25.6,11.29-38.55,13.25c-11.38,1.97-22.95,2.36-34.72,1.19
					c-11.77-1.18-22.95-3.91-33.55-8.23c-6.27,21.98-6.46,42.96-0.57,62.97c5.49,16.09,13.84,26.87,25.02,32.36
					c11.18,5.5,25.02,8.23,41.49,8.23c12.95,0,25.6-2.66,37.96-7.96c12.36-5.3,23.04-12.46,32.07-21.49
					c9.02-8.63,17.15-18.44,24.42-29.43c7.25-10.98,14.41-21.58,21.47-31.79c1.18-1.56,3.33-2.74,6.47-3.53
					c3.14-0.78,6.47-1.18,10.01-1.18c4.31,0,8.33,0.69,12.07,2.06c3.72,1.38,4.8,3.44,3.24,6.18c-7.06,14.13-14.51,27.96-22.35,41.5
					c-7.85,13.54-17.65,25.61-29.42,36.2c-13.34,12.56-28.45,22.37-45.31,29.44c-16.87,7.07-34.33,10.6-52.38,10.61
					c-13.74,0-29.53-1.46-47.38-4.4c-17.86-2.94-36.2-11.47-55.04-25.59c-11.39-9.02-19.34-19.8-23.84-32.36
					C421.88,1634.95,420.01,1622,420.79,1608.66z M494.34,1556.85c2.35,0.79,4.12,1.57,5.3,2.35c5.49,2.75,10.79,4.91,15.89,6.47
					c5.1,1.57,10.2,2.35,15.3,2.35c9.02,0,17.07-2.16,24.13-6.48c9.8-5.1,17.06-12.66,21.77-22.66c4.7-10.01,5.68-20.5,2.93-31.49
					c-1.97-6.67-5.01-12.15-9.13-16.48c-4.12-4.31-9.12-6.47-15.01-6.47c-6.68,0-13.34,2.56-20.01,7.66
					c-4.32,3.53-8.53,7.95-12.65,13.25c-4.12,5.3-7.94,10.89-11.47,16.78c-3.53,5.89-6.77,11.87-9.71,17.95
					C498.75,1546.16,496.3,1551.75,494.34,1556.85z"/>
				<path d="M692.07,1506.18c11.37-19.62,24.51-35.12,39.42-46.51c14.9-11.38,34.13-17.08,57.67-17.08c12.95,0,25.9,2.15,38.85,6.46
					c12.95,4.32,23.93,11.38,32.96,21.18c0.39-1.96,0.59-4.9,0.59-8.83c0.38-9.41,0.68-18.92,0.88-28.54
					c0.19-9.61,0.48-19.13,0.87-28.54c0.38-9.42,0.78-18.93,1.17-28.55c0.38-9.61,2.15-18.93,5.29-27.96
					c1.96-5.49,6.08-8.83,12.36-10.01c6.27-1.18,11.57-1.77,15.89-1.77c2.35,0,5,0.1,7.95,0.29c2.94,0.2,5.89,0.69,8.83,1.47
					c2.94,0.79,5.59,1.97,7.95,3.53c2.35,1.57,3.73,3.73,4.12,6.47c1.96,9.03,2.95,18.35,2.95,27.95c0,9.62,0.01,19.13,0.01,28.55
					c-0.78,26.29-1.46,52.48-2.04,78.57c-0.58,26.1-0.87,52.29-0.86,78.57c0,8.24-0.1,16.48-0.29,24.72
					c-0.2,8.24-0.49,16.48-0.88,24.72c-0.39,8.24-0.88,16.48-1.46,24.72c-0.59,8.24-1.08,16.29-1.47,24.13c0,1.18,0,2.46,0,3.83
					c0,1.38,0.3,2.45,0.88,3.24c0.59,0.79,1.47,1.08,2.65,0.88c1.18-0.19,2.94-1.47,5.3-3.83c5.49-4.71,10-9.42,13.53-14.13
					c9.02-11.38,16.37-23.34,22.06-35.91c5.68-12.55,11.86-25.11,18.53-37.67c0.78-1.96,2.84-3.33,6.18-4.12
					c3.33-0.78,6.96-1.18,10.89-1.18c4.71,0,9.02,0.59,12.95,1.76c3.92,1.18,5.49,2.94,4.71,5.3c-1.97,7.06-4.51,14.82-7.64,23.25
					c-3.14,8.44-6.76,16.87-10.88,25.31c-4.12,8.44-8.53,16.48-13.24,24.13c-4.71,7.65-9.41,14.23-14.12,19.72
					c-6.28,6.68-13.05,12.17-20.3,16.48c-7.26,4.32-15.4,7.27-24.42,8.84c-9.42,1.18-19.62,0.89-30.6-0.87
					c-10.99-1.76-19.82-6.37-26.49-13.82c-3.53-3.53-5.99-7.74-7.36-12.65c-1.38-4.9-2.46-9.9-3.24-15.01
					c-9.81,12.95-21.77,21.78-35.89,26.49c-14.12,4.71-28.84,7.07-44.14,7.07c-20.8,0.01-40.42-4.3-58.86-12.93
					c-18.45-8.62-32.38-22.55-41.8-41.77c-10.6-20.79-14.33-42.08-11.2-63.85C673.44,1546.5,680.69,1525.81,692.07,1506.18z
					 M749.78,1632.7c1.56,2.35,3.62,5.1,6.18,8.24c2.55,3.15,5.3,5.99,8.24,8.53c2.94,2.56,6.08,4.81,9.42,6.77
					c3.33,1.97,6.37,2.94,9.12,2.94c4.31,0,9.21-2.74,14.71-8.24c5.09-5.1,10.09-11.28,15-18.54c4.9-7.26,9.61-14.81,14.12-22.66
					c4.5-7.85,8.53-15.79,12.06-23.84c3.53-8.04,6.47-15.4,8.82-22.07c5.49-16.48,5.88-31.09,1.16-43.85
					c-4.71-12.74-12.17-24.81-22.37-36.19c-4.32-4.31-9.03-8.43-14.13-12.36c-5.11-3.92-10.8-5.88-17.07-5.88
					c-5.89,0-11.18,1.97-15.89,5.89c-4.71,3.93-9.03,9.03-12.94,15.31c-10.2,14.52-18.04,30.42-23.53,47.68
					c-5.49,16.09-7.94,32.77-7.34,50.03C735.94,1601.72,740.75,1617.8,749.78,1632.7z"/>
				<path d="M1008.1,1485.5c0.78-3.14,3.13-5.39,7.06-6.77c3.92-1.37,8.24-2.06,12.95-2.06c4.31,0,8.33,0.69,12.06,2.06
					c3.73,1.38,5.98,3.63,6.77,6.77c3.14,14.92,3.54,29.82,1.19,44.73c-2.35,14.92-4.51,29.82-6.46,44.73
					c-1.57,11.39-2.45,23.25-2.64,35.61c-0.2,12.36,2.07,24.04,6.78,35.01c3.92,9.42,9.42,16.87,16.48,22.36
					c0.78,0.79,1.77,1.57,2.94,2.35c1.18,0.79,2.35,1.57,3.53,2.35l0.59,0c0,0.4,0.39,0.59,1.18,0.59
					c3.92-1.56,7.45-4.31,10.59-8.24c3.92-3.92,7.25-8.24,10-12.95c2.74-4.71,5.49-9.42,8.24-14.13
					c5.49-10.98,10.68-22.07,15.59-33.26c4.9-11.19,9.71-22.46,14.41-33.85c0.38-4.31,0.97-9.42,1.76-15.3
					c0.78-5.89,1.56-11.86,2.35-17.95c0.78-6.08,1.76-11.96,2.94-17.66c1.18-5.68,2.35-10.49,3.53-14.42l5.29-15.89
					c1.18-3.14,2.25-5.79,3.23-7.95c0.97-2.15,3.03-4.21,6.18-6.18c3.92-2.74,9.42-4.12,16.48-4.12c6.67,0,11.57,1.38,14.71,4.12
					c2.74,1.57,4.71,3.73,5.89,6.47c0.78,1.18,1.18,2.65,1.18,4.41c0,1.77,0.19,3.24,0.59,4.41c0.39,2.35,0.68,4.81,0.88,7.36
					c0.19,2.56,0.68,5,1.47,7.36c0.78,5.1,1.08,10.21,0.89,15.3c-0.2,5.1-0.49,10.21-0.88,15.3c0,10.21-0.2,20.21-0.58,30.01
					c-0.39,9.81-0.98,19.82-1.76,30.02c-0.79,10.21-1.76,20.11-2.93,29.72c-1.18,9.62-1.17,19.33,0.01,29.13
					c0.39,9.03,2.16,18.05,5.3,27.07c1.18,4.32,2.65,8.53,4.42,12.65c1.77,4.12,3.04,8.34,3.83,12.65c0.39,1.97-0.29,3.63-2.06,5
					c-1.76,1.37-3.93,2.45-6.47,3.24c-2.56,0.78-5.1,1.27-7.65,1.47c-2.56,0.19-4.41,0.3-5.59,0.3c-4.32,0.39-9.12,0.19-14.42-0.58
					c-5.3-0.79-9.52-2.94-12.65-6.47c-5.5-5.88-10.01-13.04-13.54-21.48c-3.53-8.43-6.29-16.57-8.25-24.42
					c-7.06,11.39-16.47,19.72-28.24,25.02c-11.77,5.3-24.13,7.95-37.08,7.95c-15.3,0-30.31-3.32-45.03-9.99
					c-14.72-6.66-26-16.27-33.85-28.83c-8.63-13.73-13.25-27.95-13.84-42.66c-0.59-14.71,0.98-29.52,4.7-44.44
					c3.72-14.91,8.43-29.62,14.11-44.14C999.96,1512.77,1004.58,1498.84,1008.1,1485.5z M1073.48,1674.4l1.18,0.59
					C1075.44,1674.6,1075.04,1674.4,1073.48,1674.4z"/>
				<path d="M1229.43,1653.76c0.39-7.06,0.59-14.22,0.58-21.48c0-7.26,0.2-14.42,0.58-21.48l1.74-86.52
					c0.38-14.51,0.77-29.03,1.17-43.55c0.38-14.51,0.77-29.23,1.16-44.14c0.78-10.2,1.36-20.6,1.76-31.19
					c0.38-10.59,1.56-20.98,3.52-31.19c0.78-4.31,1.86-8.24,3.23-11.77c1.37-3.53,2.65-7.45,3.82-11.77
					c1.56-4.31,4.8-6.86,9.71-7.65c4.9-0.78,9.31-1.37,13.24-1.77c3.53,0,7.84,0.49,12.95,1.47c5.09,0.98,8.24,3.63,9.42,7.94
					c2.36,8.24,4.02,15.6,5.01,22.07c0.98,6.47,1.86,14.03,2.65,22.66c0.78,7.06,1.18,14.23,1.18,21.48c0,7.26-0.2,14.42-0.58,21.48
					c0,14.52-0.09,28.94-0.28,43.26c-0.2,14.33-0.49,28.55-0.87,42.67l-1.75,72.39l21.18-24.72c7.06-8.63,14.12-17.07,21.18-25.31
					c7.06-8.24,13.73-16.87,20-25.9c3.13-4.31,5.97-8.73,8.53-13.25c2.55-4.51,4.8-9.32,6.76-14.42c2.35-5.09,4.31-10.39,5.88-15.89
					c1.56-5.49,3.53-10.98,5.88-16.48c0.78-1.96,2.65-3.53,5.59-4.71c2.94-1.18,6.18-2.06,9.71-2.65c3.53-0.59,6.96-0.98,10.3-1.18
					c3.33-0.19,5.78-0.3,7.36-0.3c1.18,0,3.24,0.2,6.18,0.59c2.94,0.39,5.89,1.08,8.83,2.06c2.94,0.98,5.49,2.26,7.65,3.82
					c2.15,1.57,3.24,3.53,3.24,5.88c-0.4,5.89-1.86,11.58-4.41,17.07c-2.55,5.5-5.2,10.99-7.94,16.48
					c-3.14,4.71-6.28,9.33-9.41,13.83c-3.14,4.52-6.28,8.93-9.41,13.24c-9.81,11.39-20.1,22.37-30.89,32.97
					c-10.79,10.6-21.87,21-33.24,31.2c5.49,3.92,10.89,7.65,16.19,11.18c5.3,3.53,10.3,7.45,15.01,11.77
					c27.47,25.89,48.27,56.29,62.41,91.21c1.18,3.14,1.08,5.69-0.29,7.65c-1.38,1.97-3.44,3.62-6.18,5
					c-2.75,1.37-5.69,2.36-8.83,2.95c-3.15,0.59-5.69,1.08-7.65,1.47c-8.63,1.18-17.27,0.59-25.9-1.76
					c-1.97-0.39-4.81-1.28-8.53-2.65c-3.73-1.38-5.99-3.03-6.77-5c-6.68-16.48-14.23-32.07-22.67-46.78
					c-8.45-14.71-17.18-29.51-26.2-44.43c-1.57-3.13-2.75-5.3-3.53-6.47c-12.94,15.31-23.34,31.4-31.18,48.27
					c0,6.28-0.1,12.46-0.29,18.54c-0.2,6.09-0.69,12.27-1.47,18.54c-0.39,3.15-1.86,5.59-4.41,7.36c-2.56,1.77-5.59,3.05-9.12,3.83
					c-3.53,0.79-7.06,1.28-10.59,1.48c-3.53,0.2-6.47,0.3-8.83,0.3c-1.97,0-4.71-0.09-8.24-0.29c-3.53-0.19-7.06-0.68-10.59-1.47
					c-3.53-0.78-6.58-2.15-9.12-4.12c-2.56-1.96-4.02-4.31-4.42-7.06c-0.78-7.45-0.98-14.91-0.59-22.36
					C1229.24,1668.67,1229.44,1661.22,1229.43,1653.76z"/>
				
					<linearGradient id="SVGID_1_" gradientUnits="userSpaceOnUse" x1="1609.5381" y1="1714.3239" x2="1609.5381" y2="1338.2512" gradientTransform="matrix(1 -2.711800e-04 2.711531e-04 1 -0.2575 0.3864)">
					<stop  offset="0" style="stop-color:#2D8F03"/>
					<stop  offset="0.2563" style="stop-color:#44A30D"/>
					<stop  offset="0.7898" style="stop-color:#7DD727"/>
					<stop  offset="1" style="stop-color:#96ED32"/>
				</linearGradient>
				<path class="st1" d="M1453.66,1656.64c-0.4-7.45-0.59-14.81-0.59-22.07c0-7.26,0-14.81-0.01-22.66
					c0-14.91,0.08-29.72,0.28-44.43c0.19-14.71,0.48-29.52,0.87-44.44c0-14.91-0.01-29.81-0.01-44.73c0-14.91,0.19-29.81,0.58-44.73
					c0.39-7.45,0.59-14.81,0.58-22.07c0-7.26,0.38-14.61,1.17-22.07c0.78-7.45,1.76-15.1,2.94-22.95
					c1.18-7.85,3.72-14.91,7.65-21.19c1.96-3.14,5.3-5.1,10-5.89c4.71-0.78,8.63-1.18,11.77-1.18c3.14,0,7.15,0.39,12.06,1.17
					c4.9,0.79,8.33,2.75,10.3,5.88c3.53,6.28,5.79,13.34,6.77,21.19c0.98,7.85,1.86,15.5,2.66,22.95
					c0.78,7.46,1.08,14.81,0.89,22.07c-0.2,7.26-0.29,14.62-0.29,22.07c0,14.92,0.01,29.82,0.01,44.73
					c0,14.91-0.19,29.82-0.58,44.73c0,10.21-0.1,20.41-0.29,30.6c-0.2,10.21-0.29,20.41-0.29,30.6
					c6.27-16.09,13.13-31.78,20.59-47.09c7.44-15.3,17.25-29.23,29.41-41.79c9.02-9.42,19.22-16.38,30.6-20.9
					c11.37-4.51,23.73-5.2,37.08-2.07c12.55,2.74,21.58,8.44,27.08,17.06c5.49,8.63,9.03,18.34,10.6,29.13
					c1.57,10.8,1.77,22.07,0.6,33.84c-1.17,11.77-2.35,22.36-3.52,31.78c-1.97,12.17-3.82,24.23-5.58,36.2
					c-1.76,11.97-2.84,24.04-3.23,36.19c-0.4,4.32-0.39,8.64,0,12.95c0.39,4.32,1.56,8.63,3.54,12.95c2.35-1.56,4.41-3.14,6.18-4.71
					c1.76-1.56,3.62-3.33,5.59-5.3c12.55-14.13,23.43-28.74,32.65-43.85c9.21-15.1,17.35-31.49,24.41-49.15
					c0.78-1.56,2.55-2.74,5.3-3.53c2.74-0.78,5.68-1.18,8.83-1.18c4.31,0,8.24,0.59,11.77,1.76c3.53,1.18,4.9,2.75,4.12,4.71
					c-3.53,12.56-7.64,24.92-12.35,37.08c-4.71,12.17-9.8,24.13-15.29,35.91c-4.32,9.42-8.92,17.86-13.82,25.31
					c-4.91,7.46-10.5,13.74-16.77,18.84c-6.28,5.11-13.44,9.04-21.48,11.78c-8.05,2.75-17.56,4.12-28.54,4.13
					c-10.21,0-20.11-1.66-29.72-4.99c-9.62-3.33-17.36-8.92-23.25-16.77c-5.89-8.62-8.64-18.63-8.25-30.01
					c0.38-11.37,1.36-21.78,2.94-31.19c2.35-12.55,5.19-24.72,8.52-36.49c3.33-11.77,6.18-23.93,8.52-36.49
					c1.18-5.89,2.25-11.77,3.23-17.66c0.97-5.89,1.85-11.96,2.64-18.24c0.38-4.31,0.59-8.53,0.58-12.65c0-4.12-0.79-8.33-2.36-12.65
					c-0.4-1.96-1.57-3.92-3.53-5.88c-3.53,2.75-6.87,5.59-10,8.54c-3.14,2.94-6.28,6.18-9.41,9.71
					c-6.67,8.24-12.75,16.78-18.24,25.6c-5.5,8.83-10.39,18.16-14.71,27.96c-2.35,5.5-5.69,13.24-10,23.25
					c-4.32,10.01-8.73,21.1-13.23,33.26c-4.51,12.17-8.92,24.63-13.23,37.38c-4.32,12.76-7.85,24.63-10.58,35.61
					c-0.39,1.57-0.59,3.04-0.59,4.41c0,1.38-0.2,2.85-0.59,4.41c-0.39,2.75-1.87,5-4.41,6.77c-2.56,1.77-5.4,3.05-8.53,3.83
					c-3.15,0.79-6.38,1.27-9.71,1.47c-3.34,0.19-6.18,0.3-8.53,0.3c-1.97,0-4.61-0.1-7.94-0.29c-3.34-0.2-6.68-0.68-10.01-1.47
					c-3.34-0.78-6.18-2.06-8.54-3.82c-2.35-1.76-3.73-4.02-4.12-6.77c-1.18-7.45-1.68-14.91-1.48-22.36
					C1453.57,1671.56,1453.66,1664.1,1453.66,1656.64z M1673.19,1690.13c0.39,0.79,0.97,1.18,1.77,1.18
					C1674.96,1690.92,1674.37,1690.52,1673.19,1690.13z"/>
				
					<linearGradient id="SVGID_2_" gradientUnits="userSpaceOnUse" x1="1883.9401" y1="1695.4922" x2="1883.9401" y2="1449.974" gradientTransform="matrix(1 -2.711800e-04 2.711531e-04 1 -0.2575 0.3864)">
					<stop  offset="0" style="stop-color:#2D8F03"/>
					<stop  offset="0.2563" style="stop-color:#44A30D"/>
					<stop  offset="0.7898" style="stop-color:#7DD727"/>
					<stop  offset="1" style="stop-color:#96ED32"/>
				</linearGradient>
				<path class="st2" d="M1746.12,1535.32c5.09-9.8,11.27-19.42,18.53-28.84c7.25-9.42,15.39-17.95,24.42-25.61
					c9.02-7.65,18.83-14.13,29.42-19.43c10.59-5.3,21.38-8.73,32.37-10.31c12.16-1.96,24.91-1.67,38.26,0.87
					c13.33,2.55,24.72,8.14,34.14,16.76c0.39,0.39,0.78,0.69,1.18,0.88c0.39,0.2,0.78,0.69,1.18,1.47c4.71-1.56,10-2.36,15.89-2.36
					c6.67,0,11.96,0.49,15.89,1.47c3.92,0.98,6.86,2.75,8.83,5.29c1.96,2.56,3.14,5.79,3.53,9.71c0.39,3.93,0.59,8.83,0.59,14.71
					c-0.39,3.53-0.69,7.06-0.88,10.59c-0.2,3.53-0.69,6.87-1.47,10.01c-0.79,7.46-1.76,14.81-2.94,22.07
					c-1.17,7.26-2.16,14.62-2.94,22.07l-5.29,40.61c-0.79,7.06-1.76,14.12-2.94,21.19c-1.17,7.06-1.76,14.12-1.76,21.19
					c0.39,3.53,0.88,6.97,1.47,10.3c0.59,3.34,1.86,6.57,3.83,9.71c10.98-10.98,20.2-21.38,27.65-31.2
					c7.44-9.81,13.53-22.37,18.23-37.67c0.78-2.74,2.94-4.61,6.47-5.59c3.53-0.97,7.45-1.47,11.77-1.47c4.31,0,8.43,0.59,12.36,1.76
					c3.92,1.18,5.49,2.94,4.71,5.3c-2.35,10.99-5.88,22.27-10.58,33.84c-4.71,11.58-10.59,21.98-17.65,31.2
					c-7.06,9.23-15.5,16.78-25.3,22.66c-9.81,5.89-21.18,8.83-34.13,8.84c-11.38,0-22.27-2.15-32.67-6.47
					c-10.4-4.31-18.35-11.96-23.84-22.95c-9.81,8.64-21.18,14.92-34.13,18.84c-12.95,3.93-25.7,5.89-38.25,5.9
					c-16.48,0-31.98-3.23-46.5-9.7c-14.52-6.47-25.71-16.56-33.55-30.3c-10.2-17.65-14.23-36.87-12.08-57.67
					C1732.1,1572.21,1737.49,1552.98,1746.12,1535.32z M1808.54,1649.48c2.36,3.14,4.42,5.5,6.18,7.06
					c1.77,1.57,4.21,3.53,7.36,5.88l1.18,1.18l2.94,0c0-0.39,0.39-0.59,1.18-0.59c0.78-0.78,1.76-1.27,2.94-1.47
					c1.18-0.19,2.15-0.49,2.94-0.88c5.09-1.96,10.59-5.69,16.48-11.19c32.95-27.47,50.79-72.4,53.52-134.79
					c-0.79-7.85-3.15-15.3-7.07-22.36c-3.93-7.06-9.23-12.74-15.9-17.06c-3.53-3.13-7.27-4.71-11.18-4.71
					c-1.57,0-2.94,0.2-4.12,0.59c-1.18,0.4-2.56,0.99-4.12,1.77c-1.97,0.79-3.82,1.87-5.59,3.24c-1.76,1.38-3.63,2.65-5.59,3.83
					c-12.56,9.81-23.24,21.78-32.07,35.91c-8.82,14.13-15,28.84-18.53,44.14c-3.92,14.52-5.49,29.93-4.7,46.2
					C1795.19,1622.51,1799.9,1636.93,1808.54,1649.48z M1820.9,1664.78l1.18,0l0-0.59
					C1821.69,1664.59,1821.29,1664.78,1820.9,1664.78z"/>
				
					<linearGradient id="SVGID_3_" gradientUnits="userSpaceOnUse" x1="2106.3481" y1="1691.3771" x2="2106.3481" y2="1444.7758" gradientTransform="matrix(1 -2.711800e-04 2.711531e-04 1 -0.2575 0.3864)">
					<stop  offset="0" style="stop-color:#2D8F03"/>
					<stop  offset="0.2563" style="stop-color:#44A30D"/>
					<stop  offset="0.7898" style="stop-color:#7DD727"/>
					<stop  offset="1" style="stop-color:#96ED32"/>
				</linearGradient>
				<path class="st3" d="M2019.79,1521.12c10.19-22.75,23.83-41.2,40.89-55.33c17.06-14.13,38.34-21.2,63.85-21.2
					c7.06,0,14.13,0.69,21.19,2.06c7.06,1.38,13.54,3.73,19.42,7.06c5.89,3.34,10.98,7.56,15.3,12.65
					c4.32,5.1,7.26,11.38,8.83,18.83c0.78,2.35-0.98,4.22-5.3,5.59c-4.32,1.38-9.03,2.06-14.12,2.06c-3.93,0-7.46-0.38-10.59-1.17
					c-3.14-0.78-5.1-2.15-5.89-4.12c-2.35-5.88-5.8-10.98-10.3-15.3c-4.52-4.31-9.71-7.25-15.6-8.82c0.39,0.39,0,0.59-1.18,0.59
					c-1.57,0-2.75,0.4-3.53,1.18c-3.15,1.18-6.09,2.75-8.83,4.71c-2.75,1.97-5.3,3.93-7.65,5.89c-9.41,9.42-16.77,20.81-22.06,34.14
					c-5.29,13.34-9.51,26.29-12.64,38.85c-3.14,13.74-4.9,27.76-5.29,42.08c-0.39,14.33,2.55,27.95,8.84,40.9
					c2.35,5.1,5.2,10,8.54,14.71c3.33,4.71,7.16,8.63,11.48,11.77c0.78,0.79,1.47,1.38,2.06,1.76c0.59,0.39,1.27,0.98,2.06,1.76
					l1.18,0.59c1.18,0.4,2.55,0.98,4.12,1.77c0.39,0.39,0.98,0.59,1.77,0.59c0.39,0,0.78,0.1,1.18,0.29
					c0.39,0.2,0.78,0.29,1.18,0.29c0.78,0.39,1.56,0.59,2.35,0.59c0.78,0,1.56,0.2,2.36,0.59c0.78,0,1.86,0.1,3.24,0.29
					c1.37,0.2,1.86,0.29,1.47,0.29l2.94,0c3.14-0.78,5.3-1.18,6.47-1.18c0.78-0.39,1.56-0.59,2.36-0.59c0.78,0,1.56-0.19,2.35-0.59
					c0.78-0.39,1.37-0.59,1.77-0.59c0.39,0,0.97-0.19,1.76-0.59l1.18-0.59l1.18,0c11.77-5.1,22.95-11.78,33.54-20.02
					c3.53-2.74,7.84-4.21,12.95-4.42c5.09-0.2,9.8,0.1,14.13,0.88c0.78,0,2.15,0.29,4.12,0.88c1.96,0.59,3.72,1.28,5.3,2.06
					c1.56,0.79,2.74,1.86,3.53,3.23c0.78,1.38,0.59,2.85-0.59,4.41c-5.88,9.03-13.34,16.39-22.36,22.08
					c-9.03,5.7-18.74,10.01-29.13,12.96c-10.4,2.94-21.09,4.81-32.07,5.6c-10.99,0.79-21.39,0.8-31.19,0.01
					c-9.42-0.78-18.74-2.54-27.96-5.29c-9.22-2.74-17.76-6.56-25.6-11.47c-7.85-4.9-14.82-10.98-20.9-18.24
					c-6.09-7.25-10.89-15.59-14.42-25.01c-6.67-18.83-8.25-37.46-4.72-55.91C2006.26,1556.25,2011.94,1538.4,2019.79,1521.12z"/>
				
					<linearGradient id="SVGID_4_" gradientUnits="userSpaceOnUse" x1="2320.5679" y1="1720.7987" x2="2320.5679" y2="1341.1953" gradientTransform="matrix(1 -2.711800e-04 2.711531e-04 1 -0.2575 0.3864)">
					<stop  offset="0" style="stop-color:#2D8F03"/>
					<stop  offset="0.2563" style="stop-color:#44A30D"/>
					<stop  offset="0.7898" style="stop-color:#7DD727"/>
					<stop  offset="1" style="stop-color:#96ED32"/>
				</linearGradient>
				<path class="st4" d="M2212.86,1653.49c0.39-7.06,0.58-14.22,0.58-21.48c0-7.26,0.2-14.42,0.58-21.48l1.74-86.52
					c0.38-14.51,0.77-29.03,1.17-43.55c0.38-14.51,0.77-29.23,1.17-44.14c0.78-10.2,1.36-20.6,1.76-31.19
					c0.38-10.59,1.56-20.98,3.52-31.19c0.78-4.31,1.85-8.24,3.23-11.77c1.37-3.53,2.65-7.45,3.82-11.77
					c1.56-4.31,4.8-6.86,9.71-7.65c4.9-0.78,9.31-1.37,13.24-1.77c3.53,0,7.84,0.49,12.95,1.47c5.09,0.98,8.24,3.63,9.42,7.94
					c2.36,8.24,4.02,15.6,5.01,22.07c0.98,6.47,1.86,14.03,2.66,22.66c0.78,7.06,1.18,14.23,1.18,21.48c0,7.26-0.2,14.42-0.58,21.48
					c0,14.52-0.09,28.94-0.28,43.26c-0.2,14.33-0.49,28.55-0.87,42.67l-1.75,72.39l21.18-24.72c7.06-8.63,14.12-17.07,21.18-25.31
					c7.06-8.24,13.72-16.87,20-25.9c3.14-4.31,5.98-8.73,8.53-13.25c2.55-4.51,4.8-9.32,6.76-14.42c2.35-5.09,4.31-10.39,5.88-15.89
					c1.56-5.49,3.53-10.98,5.88-16.48c0.78-1.96,2.65-3.53,5.59-4.71c2.94-1.18,6.18-2.06,9.71-2.65c3.53-0.59,6.96-0.98,10.3-1.18
					c3.33-0.19,5.78-0.3,7.36-0.3c1.18,0,3.24,0.2,6.18,0.59c2.94,0.39,5.89,1.08,8.83,2.06c2.94,0.98,5.49,2.26,7.65,3.82
					c2.15,1.57,3.24,3.53,3.24,5.88c-0.4,5.89-1.86,11.58-4.41,17.07c-2.56,5.5-5.2,10.99-7.94,16.48
					c-3.14,4.71-6.28,9.33-9.41,13.83c-3.14,4.52-6.28,8.93-9.41,13.24c-9.81,11.39-20.11,22.37-30.89,32.97
					c-10.79,10.6-21.87,21-33.24,31.2c5.49,3.92,10.89,7.65,16.19,11.18c5.3,3.53,10.3,7.45,15.01,11.77
					c27.47,25.89,48.28,56.29,62.41,91.21c1.18,3.14,1.08,5.69-0.29,7.65c-1.38,1.97-3.44,3.62-6.18,5
					c-2.75,1.37-5.69,2.36-8.83,2.95c-3.14,0.59-5.69,1.08-7.65,1.47c-8.63,1.18-17.27,0.59-25.9-1.76
					c-1.97-0.39-4.81-1.28-8.54-2.65c-3.73-1.38-5.99-3.03-6.77-5c-6.68-16.48-14.23-32.07-22.67-46.78
					c-8.45-14.71-17.18-29.51-26.2-44.43c-1.57-3.13-2.75-5.3-3.53-6.47c-12.94,15.31-23.34,31.4-31.18,48.27
					c0,6.28-0.1,12.46-0.29,18.54c-0.2,6.09-0.69,12.27-1.47,18.54c-0.39,3.15-1.87,5.59-4.41,7.36c-2.56,1.77-5.59,3.05-9.12,3.83
					c-3.53,0.79-7.06,1.28-10.59,1.48c-3.53,0.2-6.47,0.3-8.83,0.3c-1.97,0-4.71-0.09-8.24-0.29c-3.53-0.19-7.06-0.68-10.59-1.47
					c-3.53-0.78-6.57-2.15-9.12-4.12c-2.56-1.96-4.02-4.31-4.41-7.06c-0.78-7.45-0.98-14.91-0.59-22.36
					C2212.67,1668.41,2212.86,1660.95,2212.86,1653.49z"/>
			</g>
		</g>
		<g>
			
				<linearGradient id="SVGID_5_" gradientUnits="userSpaceOnUse" x1="1997.2156" y1="785.6054" x2="852.6232" y2="696.1993" gradientTransform="matrix(1 -2.711800e-04 2.711531e-04 1 -0.2575 0.3864)">
				<stop  offset="0" style="stop-color:#EB7100"/>
				<stop  offset="0.25" style="stop-color:#EF8800"/>
				<stop  offset="0.7704" style="stop-color:#FAC100"/>
				<stop  offset="1" style="stop-color:#FFDD00"/>
			</linearGradient>
			<path class="st6" d="M1234.84,985.69c526.82-0.14,1030.15-316.93,727.7-659.19c-81.48-84.25-202.07-138.55-349.53-146.34
				c-340.54-17.98-695.33,218.92-792.44,529.14c-97.11,310.22,100.23,576.28,440.78,594.27c235.03,12.41,476.83-96.59,636.05-267.3
				c48.98-61.53,10.48-133.16-80.14-84.44c-125.46,67.45-436.31,144.32-591.76,93.8C1171.68,1028.13,1165.55,985.7,1234.84,985.69z
				 M1226.3,641.47c49.69-80.99,139.96-156.56,254.39-189.03c164.27-46.61,250.66,135.98,102.42,210.95
				c-83.19,42.07-211.75,69.42-293.6,80.9C1169.48,761.11,1200.54,683.46,1226.3,641.47z"/>
			
				<linearGradient id="SVGID_6_" gradientUnits="userSpaceOnUse" x1="1028.863" y1="1120.1622" x2="1918.8003" y2="1120.1622" gradientTransform="matrix(1 -2.711800e-04 2.711531e-04 1 -0.2575 0.3864)">
				<stop  offset="0" style="stop-color:#C4004F"/>
				<stop  offset="0.1624" style="stop-color:#CC1066"/>
				<stop  offset="0.5028" style="stop-color:#DF3AA0"/>
				<stop  offset="0.9895" style="stop-color:#FE7CFD"/>
				<stop  offset="1" style="stop-color:#FF7DFF"/>
			</linearGradient>
			<path class="st7" d="M1897.39,1036.26c48.98-61.53,10.48-133.16-80.14-84.44c-125.46,67.45-436.31,144.32-591.76,93.8
				c-53.81-17.49-59.94-59.91,9.35-59.93c-312,0.08-242.01,296.02,26.51,317.88C1496.38,1315.98,1738.18,1206.98,1897.39,1036.26z"
				/>
			
				<linearGradient id="SVGID_7_" gradientUnits="userSpaceOnUse" x1="795.8488" y1="644.4941" x2="1902.5726" y2="644.4941" gradientTransform="matrix(1 -2.711800e-04 2.711531e-04 1 -0.2575 0.3864)">
				<stop  offset="0" style="stop-color:#2D8F03"/>
				<stop  offset="0.2563" style="stop-color:#44A30D"/>
				<stop  offset="0.7898" style="stop-color:#7DD727"/>
				<stop  offset="1" style="stop-color:#96ED32"/>
			</linearGradient>
			<path class="st8" d="M820.57,709.3c-47.64,152.19-24.41,293.75,51.83,400.6c-194.97-342.89,319.56-588.93,608.3-657.46
				c164.27-46.61,250.66,135.98,102.42,210.95c202.49-74.6,423.46-301.27,265.59-421.53c-66.89-35.18-146.36-56.98-235.69-61.69
				C1272.47,162.17,917.68,399.08,820.57,709.3z"/>
		</g>
	</g>
</g>
</svg>
